<svg id="_0119_analyzing_process" xmlns="http://www.w3.org/2000/svg" viewBox="0 0 500 500" data-imageid="report-analysis-4-38" imageName="Report Analysis 4" class="illustrations_image" style="width: 160px;"><defs><style>.cls-1_report-analysis-4-38,.cls-2_report-analysis-4-38,.cls-3_report-analysis-4-38{fill:#fff;}.cls-4_report-analysis-4-38{fill:#f4a28c;}.cls-5_report-analysis-4-38{fill:#000001;opacity:.03;}.cls-6_report-analysis-4-38{opacity:.08;}.cls-7_report-analysis-4-38{fill:#e6e6e6;}.cls-8_report-analysis-4-38{opacity:.2;}.cls-8_report-analysis-4-38,.cls-9_report-analysis-4-38{fill:#ffd200;}.cls-2_report-analysis-4-38{opacity:.22;}.cls-3_report-analysis-4-38{opacity:.46;}.cls-10_report-analysis-4-38{fill:#24285b;}.cls-11_report-analysis-4-38{fill:#68e1fd;}</style></defs><g id="stats_report-analysis-4-38"><rect class="cls-7_report-analysis-4-38" x="41.57" y="47.56" width="394.45" height="302.32"/><circle class="cls-8_report-analysis-4-38" cx="370.1" cy="186.44" r="17.53"/><path class="cls-10_report-analysis-4-38" d="m89.02,229.66c-.17,0-.35-.05-.51-.14-.47-.28-.63-.9-.35-1.37l44.77-74.92c.17-.29.47-.47.81-.49.34-.01.65.13.85.4l52.11,69.31,39.41-39.35c.25-.25.63-.35.97-.26.35.1.62.37.7.72l7.41,29.45,50.68-53.91c.22-.23.52-.34.84-.31.31.04.59.22.75.49l38.95,67.76,42.99-41.33c.4-.38,1.03-.37,1.41.03.38.4.37,1.03-.03,1.41l-43.91,42.22c-.22.21-.52.31-.83.27-.3-.04-.57-.23-.73-.49l-38.92-67.7-51.01,54.26c-.25.27-.63.38-.98.28-.35-.09-.63-.37-.72-.72l-7.42-29.52-38.98,38.92c-.21.21-.49.31-.78.29-.29-.02-.55-.17-.73-.4l-51.91-69.05-44.01,73.64c-.19.31-.52.49-.86.49Z"/><path class="cls-6_report-analysis-4-38" d="m173.94,207.31s-41.13-6.7-46.1,42.52c-4.98,49.21,3.4,71.91,3.4,71.91l-27.68,28.14h152.26l-6.64-76.38s48.51,51.08,75.3,43.13c26.79-7.95,66.26-46.31,48.66-105.73l-40.3,59.76-33.49-7.36-31.5-48.26-37.23-23.9-56.7,16.17Z"/><circle class="cls-10_report-analysis-4-38" cx="71.65" cy="79.89" r="8.79"/><circle class="cls-9_report-analysis-4-38" cx="370.1" cy="186.44" r="8.79"/><circle class="cls-11_report-analysis-4-38 targetColor" cx="286.73" cy="159.79" r="8.79" style="fill: rgb(104, 225, 253);"/><circle class="cls-11_report-analysis-4-38 targetColor" cx="325.89" cy="226.53" r="8.79" style="fill: rgb(104, 225, 253);"/><circle class="cls-11_report-analysis-4-38 targetColor" cx="133.91" cy="153.74" r="8.79" style="fill: rgb(104, 225, 253);"/><circle class="cls-11_report-analysis-4-38 targetColor" cx="89.14" cy="228.66" r="8.79" style="fill: rgb(104, 225, 253);"/><circle class="cls-11_report-analysis-4-38 targetColor" cx="97.81" cy="79.89" r="8.79" style="fill: rgb(104, 225, 253);"/><circle class="cls-9_report-analysis-4-38" cx="122.45" cy="79.89" r="8.79"/><path class="cls-6_report-analysis-4-38" d="m230.01,145.98s-18.03-5.23-25.32,6.45c-7.29,11.68,8.6,31.85-6.72,44.18-15.32,12.34,43.7,10.6,43.7,10.6l-9.79-31.53,4.31-22.85-6.19-6.86Z"/></g><ellipse id="sd_report-analysis-4-38" class="cls-5_report-analysis-4-38" cx="235.23" cy="430.8" rx="142.29" ry="21.64"/><g id="person_report-analysis-4-38"><path class="cls-11_report-analysis-4-38 targetColor" d="m174.13,194.85s-40.48,30.4-18.91,95.67c21.57,65.27,67.7,33.49,67.7,33.49v-53.35l-48.78-75.8Z" style="fill: rgb(104, 225, 253);"/><path class="cls-3_report-analysis-4-38" d="m174.13,194.85s-40.48,30.4-18.91,95.67c21.57,65.27,67.7,33.49,67.7,33.49v-53.35l-48.78-75.8Z"/><path class="cls-11_report-analysis-4-38 targetColor" d="m276.73,420.58l8.13,6.36c1.44,1.12.64,3.43-1.18,3.43h-10.3c-3.04,0-5.5-2.46-5.5-5.5v-4.29h8.86Z" style="fill: rgb(104, 225, 253);"/><rect class="cls-9_report-analysis-4-38" x="157" y="303.25" width="59.19" height="46.89" transform="translate(-127.24 119.19) rotate(-26.79)"/><path class="cls-11_report-analysis-4-38 targetColor" d="m189.84,420.58l-8.13,6.36c-1.44,1.12-.64,3.43,1.18,3.43h10.3c3.04,0,5.5-2.46,5.5-5.5v-4.29s-8.86,0-8.86,0Z" style="fill: rgb(104, 225, 253);"/><path class="cls-4_report-analysis-4-38" d="m222.91,186.44l1.4-23.05s1.65-14.83,9.08-12.15c7.43,2.68,15.18,17.3,11.17,21.84-2.16,2.46-4.44.96-7.34,1.23-2.5.23-2.06-.15-2.06,2.37v8.81l-12.25.94Z"/><path class="cls-11_report-analysis-4-38 targetColor" d="m215.51,185.31s-46.27-4.12-52.32,27.11c-6.05,31.23,37.02,90.22,37.02,90.22l60.01-2.33s93.23-130.95-44.71-115Z" style="fill: rgb(104, 225, 253);"/><path class="cls-6_report-analysis-4-38" d="m256.34,197.92s-35.89,21.66-18.27,54.65c11.31,21.17-17.62,49.28-17.62,49.28l39.77-1.55s14.56-21.6,17.47-30c2.91-8.4-21.36-72.38-21.36-72.38Z"/><polygon class="cls-10_report-analysis-4-38" points="200.22 302.64 186.59 420.58 199.92 420.59 229.71 325.91 263.26 420.61 278.53 420.61 260.22 300.3 200.22 302.64"/><path class="cls-10_report-analysis-4-38" d="m222.91,176.87h7.22s1.56-13.34,6.67-15.89c5.11-2.55,10.22-7.38,5.68-11.78-4.54-4.4-10.99-9.51-18.55-4.26-7.56,5.25-10.22,17.88-1.01,31.92Z"/><path class="cls-11_report-analysis-4-38 targetColor" d="m252.77,205.37c2.99-13.36,19.13-18.76,29.54-9.86,5.73,4.9,11.41,12.45,15.35,24.08,5.69,16.8,13.38,28.88,19.63,36.75,4.8,6.05,14.28,5.01,17.76-1.88l23.9-47.23,14.19,7.81s-16.46,70.38-40.86,77.19c-21.81,6.09-91.14-34.88-79.52-86.86Z" style="fill: rgb(104, 225, 253);"/><path class="cls-3_report-analysis-4-38" d="m252.77,205.37c2.99-13.36,19.13-18.76,29.54-9.86,5.73,4.9,11.41,12.45,15.35,24.08,5.69,16.8,13.38,28.88,19.63,36.75,4.8,6.05,14.28,5.01,17.76-1.88l23.9-47.23,14.19,7.81s-16.46,70.38-40.86,77.19c-21.81,6.09-91.14-34.88-79.52-86.86Z"/><path class="cls-4_report-analysis-4-38" d="m362.02,208.91s2.62-23.11,8.29-24.95c5.68-1.84,0,13.96,0,13.96,0,0,15.61,1.79,2.84,17.12l-11.13-6.13Z"/></g><g id="screen_report-analysis-4-38"><rect class="cls-10_report-analysis-4-38" x="17.98" y="264.52" width="107.36" height="134.46"/><rect class="cls-2_report-analysis-4-38" x="61.14" y="348.13" width="42.17" height="11.73"/><rect class="cls-2_report-analysis-4-38" x="61.14" y="368.98" width="42.17" height="11.73"/><rect class="cls-11_report-analysis-4-38 targetColor" x="43.96" y="348.13" width="12.26" height="12.26" style="fill: rgb(104, 225, 253);"/><rect class="cls-9_report-analysis-4-38" x="43.96" y="368.44" width="12.26" height="12.26"/><circle class="cls-1_report-analysis-4-38" cx="74.26" cy="305.95" r="26.39"/><path class="cls-9_report-analysis-4-38" d="m74.26,279.55v26.39l25.85-5.38s-3.61-21.19-25.85-21.02Z"/><path class="cls-11_report-analysis-4-38 targetColor" d="m74.26,305.95l-14.67,21.94s14.79,11.26,31.93-1.98c0,0,11.72-8.5,8.59-25.34l-25.85,5.38Z" style="fill: rgb(104, 225, 253);"/></g><g id="chart_report-analysis-4-38"><rect class="cls-9_report-analysis-4-38" x="345.78" y="82.49" width="113.84" height="72.55"/><rect class="cls-10_report-analysis-4-38" x="368.23" y="124.91" width="15.44" height="15.44"/><rect class="cls-10_report-analysis-4-38" x="394.26" y="108.33" width="15.44" height="32.03"/><rect class="cls-10_report-analysis-4-38" x="421.71" y="97.17" width="15.44" height="43.18"/></g><g id="dollar_report-analysis-4-38"><rect class="cls-10_report-analysis-4-38" x="390.01" y="291.73" width="92.02" height="75.45"/><path class="cls-1_report-analysis-4-38" d="m437.94,304.39c1.36,0,1.78.47,1.78,1.84v2.9c5.45.77,8.59,3.5,10.91,8.24.71,1.42.42,2.19-1.19,2.9l-2.9,1.3c-1.36.65-2.02.36-2.79-1.07-1.6-3.08-3.56-4.56-7.59-4.56-5.04,0-7.35,1.48-7.35,4.86,0,2.19,2.02,3.56,4.09,3.97,1.01.24,2.43.47,4.27.65,3.32.3,4.98.53,7.88,1.54,1.48.53,2.61,1.13,3.5,1.9,1.66,1.54,3.14,4.5,3.14,8.3,0,6.46-4.33,10.85-11.97,11.97v3.08c0,1.36-.42,1.84-1.78,1.84h-3.26c-1.36,0-1.84-.47-1.84-1.84v-3.02c-5.93-.77-9.9-3.79-11.85-9.13-.47-1.3,0-2.19,1.36-2.73l2.9-1.07c1.48-.53,2.13-.18,2.79,1.3,1.3,3.32,3.97,4.98,8,4.98,5.45,0,8.18-1.72,8.18-5.22,0-1.84-.83-2.96-2.55-3.67-1.72-.65-3.2-.89-5.87-1.13-3.26-.3-5.1-.65-7.94-1.72-1.42-.53-2.55-1.19-3.44-1.96-1.78-1.6-3.2-4.44-3.2-8.06,0-6.4,4.03-10.67,11.62-11.68v-2.9c0-1.36.47-1.84,1.84-1.84h3.26Z"/></g></svg>