<svg xmlns="http://www.w3.org/2000/svg" viewBox="0 0 800 500" preserveAspectRatio="xMidYMid meet">
  <defs>
    <linearGradient id="g1" x1="0" x2="1">
      <stop offset="0" stop-color="#bfe0ff" />
      <stop offset="1" stop-color="#e6f3ff" />
    </linearGradient>
  </defs>
  <rect width="100%" height="100%" fill="url(#g1)" rx="12"/>
  <g transform="translate(60,60)">
    <rect x="0" y="0" width="360" height="220" rx="12" fill="#fff" stroke="#dbeafe" />
    <rect x="400" y="0" width="320" height="220" rx="12" fill="#fff" stroke="#ffd7a6" />
    <g transform="translate(20,20)">
      <rect x="0" y="0" width="120" height="16" rx="6" fill="#2b6cb0" opacity="0.95"/>
      <rect x="0" y="32" width="220" height="12" rx="6" fill="#6b7280" opacity="0.12"/>
      <rect x="0" y="56" width="160" height="10" rx="6" fill="#6b7280" opacity="0.08"/>
      <circle cx="60" cy="120" r="36" fill="#f6ad55" />
      <text x="60" y="128" font-size="20" text-anchor="middle" fill="white" font-family="Arial">$</text>
    </g>
    <g transform="translate(420,20)">
      <rect x="0" y="0" width="120" height="16" rx="6" fill="#164b80" opacity="0.95"/>
      <rect x="0" y="32" width="220" height="12" rx="6" fill="#6b7280" opacity="0.12"/>
      <rect x="0" y="56" width="160" height="10" rx="6" fill="#6b7280" opacity="0.08"/>
      <rect x="0" y="100" width="120" height="60" rx="8" fill="#2b6cb0" />
      <text x="60" y="136" font-size="18" text-anchor="middle" fill="white" font-family="Arial">📈</text>
    </g>
  </g>
</svg>